:version 1.10
:name ASF
:units
  mass 1
  length 1
  angle deg
:documentation
  ASF file generated by Kaydara
:root
  axis xyz
  order  tx ty tz rx ry rz
  position 0 0 0
  orientation 0 0 0
:bonedata
  begin
    id 1
    name RightUpLegDummy
    direction -1 2.30186e-007 8.31532e-007
    length 4.04083
    axis 0 0 0 xyz
  end
  begin
    id 2
    name RightUpLeg
    direction -0.000919234 -0.999985 0.00544864
    length 17.4221
    axis -3.80308 -0.00076134 -0.0523649 xyz
    dof rx ry rz
  end
  begin
    id 3
    name RightLeg
    direction -0.000919271 -0.999984 -0.00555045
    length 17.1239
    axis 4.00314 0.0181274 -0.183583 xyz
    dof rx ry rz
  end
  begin
    id 4
    name RightFoot
    direction -2.57843e-005 -4.04509e-007 1
    length 6.72091
    axis 8.18909e-005 -0.122003 -0.403008 xyz
    dof rx ry rz
  end
  begin
    id 5
    name RightToes
    direction 0.00116825 -0.014069 0.9999
    length 3.85082
    axis 0.000514414 0.540638 -0.356797 xyz
    dof rx ry rz
  end
  begin
    id 6
    name SpineDummy
    direction 0.0168869 0.966876 -0.254689
    length 6.99894
    axis 0 0 0 xyz
  end
  begin
    id 7
    name Spine
    direction -0.0132008 0.999903 0.00446247
    length 11.1999
    axis -0.00148109 0.00725429 0.756411 xyz
    dof rx ry rz
  end
  begin
    id 8
    name Spine1
    direction 0 0 0
    length 0
    axis -0.000934958 0.0245693 1.46543 xyz
    dof rx ry rz
  end
  begin
    id 9
    name HEadDummy
    direction -0.0255732 0.999672 0.00128215
    length 3.43865
    axis -0.000934958 0.0245693 1.46543 xyz
  end
  begin
    id 10
    name HEad
    direction -0.0472656 0.980052 0.19304
    length 5.12695
    axis -0.000934954 0.0245693 1.46543 xyz
    dof rx ry rz
  end
  begin
    id 11
    name LeftShoulder1Dummy
    direction 0.953098 0.301717 -0.023914
    length 3.68488
    axis -0.000934958 0.0245693 1.46543 xyz
  end
  begin
    id 12
    name LeftShoulder1
    direction 0.962466 0.271167 0.0112566
    length 3.13809
    axis -0.000934958 0.0245693 1.46543 xyz
    dof rx ry rz
  end
  begin
    id 13
    name LeftArm
    direction 0.999943 0.00455037 -0.00961766
    length 11.3419
    axis -23.1648 0.685459 1.22814 xyz
    dof rx ry rz
  end
  begin
    id 14
    name LeftForeArm
    direction 0.999332 0.0131969 0.0340885
    length 8.70632
    axis -9.90633 0.618216 0.0826942 xyz
    dof rx ry rz
  end
  begin
    id 15
    name LeftHand
    direction 0.994373 -0.0366703 0.0993905
    length 5.32135
    axis 0.00675269 0.680415 0.445699 xyz
    dof rx ry rz
  end
  begin
    id 16
    name RightShoulderDummy
    direction -0.967298 0.252589 -0.0230903
    length 3.68488
    axis -0.000934958 0.0245693 1.46543 xyz
  end
  begin
    id 17
    name RightShoulder
    direction -0.975062 0.221602 0.0120823
    length 3.13809
    axis 0.216257 0.0246515 1.45863 xyz
    dof rx ry rz
  end
  begin
    id 18
    name RightArm
    direction -0.99886 -0.00851186 -0.0469687
    length 10.3947
    axis -23.196 0.23503 -0.532632 xyz
    dof rx ry rz
  end
  begin
    id 19
    name RightForeArm
    direction -0.99909 0.00114866 0.0426317
    length 8.68355
    axis -9.91764 -0.134943 0.610517 xyz
    dof rx ry rz
  end
  begin
    id 20
    name RightHand
    direction -0.992888 -0.0489538 0.10852
    length 5.28593
    axis -0.00275396 -0.197403 0.246414 xyz
    dof rx ry rz
  end
  begin
    id 21
    name LeftUpLegDummy
    direction 1 -2.30186e-007 -8.31532e-007
    length 4.04083
    axis 0 0 0 xyz
  end
  begin
    id 22
    name LeftUpLeg
    direction -0.000920097 -1 2.79241e-006
    length 17.4221
    axis -3.48782 0.00143434 -0.0532288 xyz
    dof rx ry rz
  end
  begin
    id 23
    name LeftLeg
    direction -0.000920097 -1 2.7912e-006
    length 17.1239
    axis 3.68162 -0.00806512 -0.0529896 xyz
    dof rx ry rz
  end
  begin
    id 24
    name LeftFoot
    direction -2.57845e-005 -3.987e-007 1
    length 6.72091
    axis 3.02372e-005 -0.00147829 -0.214229 xyz
    dof rx ry rz
  end
  begin
    id 25
    name LeftToes
    direction 0.00813577 -0.00488255 0.999955
    length 3.85048
    axis 3.89895e-005 -0.0014783 -0.214229 xyz
    dof rx ry rz
  end
:hierarchy
  begin
    root RightUpLegDummy SpineDummy LeftUpLegDummy
    RightUpLegDummy RightUpLeg
    RightUpLeg RightLeg
    RightLeg RightFoot
    RightFoot RightToes
    SpineDummy Spine
    Spine Spine1
    Spine1 HEadDummy LeftShoulder1Dummy RightShoulderDummy
    HEadDummy HEad
    LeftShoulder1Dummy LeftShoulder1
    LeftShoulder1 LeftArm
    LeftArm LeftForeArm
    LeftForeArm LeftHand
    RightShoulderDummy RightShoulder
    RightShoulder RightArm
    RightArm RightForeArm
    RightForeArm RightHand
    LeftUpLegDummy LeftUpLeg
    LeftUpLeg LeftLeg
    LeftLeg LeftFoot
    LeftFoot LeftToes
  end

:SAMPLES-PER-SECOND 30
:FULLY-SPECIFIED
:DEGREES
96
root  -15.2801 38.4998 -18.09 -171.232 2.66571 -179.558
RightUpLeg  -12.8034 -18.3562 -3.33321
RightLeg  17.6835 -0.362077 -0.0912534
RightFoot  25.5355 0.111033 0.0481647
RightToes  -26.5279 -0.120757 -0.227125
Spine  -3.15112 1.4172 -0.827568
Spine1  -6.50485 3.33184 -1.57623
HEad  -58.0537 -3.65926 7.24612
LeftShoulder1  -1.94126e-019 -3.10601e-018 -2.51263e-017
LeftArm  -101.615 -45.0933 40.2583
LeftForeArm  24.0444 -35.5951 -6.58112
LeftHand  -0.404144 1.10225 10.911
RightShoulder  -4.96962e-017 0 -2.36833e-017
RightArm  -100.825 37.0698 -45.9765
RightForeArm  39.8139 16.7338 1.64423
RightHand  -0.326265 -2.22423 -11.7157
LeftUpLeg  -13.5702 2.3804 7.80639
LeftLeg  28.4972 9.11837 4.18676
LeftFoot  22.9352 -0.830511 4.25381
LeftToes  -24.5366 1.70063e-006 7.6642e-008
97
root  -15.2706 38.3574 -18.1937 -173.065 3.21744 -179.751
RightUpLeg  -11.9703 -15.9169 -4.60077
RightLeg  21.6586 1.21848 0.392236
RightFoot  23.4867 -0.0463321 0.751123
RightToes  -26.2218 -0.118788 -0.224868
Spine  -2.36377 1.88853 -0.836835
Spine1  -5.04505 4.51896 -1.84152
HEad  -59.3305 -2.86454 8.16739
LeftShoulder1  -1.94126e-019 -3.10601e-018 -2.51263e-017
LeftArm  -111.671 -46.255 48.3321
LeftForeArm  28.2278 -25.2196 -3.94468
LeftHand  -0.451772 -0.0906821 9.64695
RightShoulder  -4.96962e-017 0 -2.36833e-017
RightArm  -120.879 36.8711 -54.2429
RightForeArm  65.1443 6.96728 1.17027
RightHand  -0.319033 -2.34819 -11.9012
LeftUpLeg  -11.6754 0.706274 8.20952
LeftLeg  31.1368 9.54609 4.92009
LeftFoot  23.1557 -0.922762 4.66351
LeftToes  -23.1568 1.70063e-006 7.6642e-008
98
root  -15.3027 37.7582 -18.2203 -173.238 3.76012 -179.711
RightUpLeg  -12.9915 -14.0467 -5.07486
RightLeg  24.3917 5.51716 2.07725
RightFoot  20.5651 -0.321355 2.27388
RightToes  -28.563 -0.134152 -0.241855
Spine  -2.50406 1.856 -0.770786
Spine1  -5.29218 4.42751 -1.60821
HEad  -58.0307 -2.06478 8.61
LeftShoulder1  -1.94126e-019 -3.10601e-018 -2.51263e-017
LeftArm  -117.613 -46.6851 49.1055
LeftForeArm  25.6182 -26.8275 -4.34949
LeftHand  -0.384001 1.72728 12.0661
RightShoulder  -4.96962e-017 0 -2.36833e-017
RightArm  -133.886 38.1005 -56.0554
RightForeArm  66.6566 7.63716 1.29377
RightHand  -0.0163073 -5.388 -14.0102
LeftUpLeg  -11.4057 -0.872383 8.61511
LeftLeg  32.3309 7.8644 4.2702
LeftFoot  21.0981 -0.646502 3.63215
LeftToes  -25.4924 1.70063e-006 7.6642e-008
99
root  -15.3361 36.7854 -18.1918 -172.645 4.03297 -179.5
RightUpLeg  -13.996 -12.6112 -5.16257
RightLeg  24.5372 9.35022 3.53854
RightFoot  18.0467 -0.440541 3.2538
RightToes  -30.5089 -0.147441 -0.255487
Spine  -2.88814 1.4341 -0.451904
Spine1  -5.93845 3.45703 -0.77631
HEad  -55.7655 -1.18525 8.28327
LeftShoulder1  -1.94126e-019 -3.10601e-018 -2.51263e-017
LeftArm  -117.069 -45.449 44.897
LeftForeArm  18.8527 -37.1791 -7.31139
LeftHand  -0.150101 4.14977 12.978
RightShoulder  -4.96962e-017 0 -2.36833e-017
RightArm  -132.812 40.1133 -55.718
RightForeArm  47.3058 14.5956 1.35601
RightHand  -0.098206 -4.6117 -12.4042
LeftUpLeg  -11.7278 -3.09455 9.001
LeftLeg  32.0632 6.3651 3.42286
LeftFoot  19.1855 -0.434471 2.73183
LeftToes  -28.3783 1.70063e-006 7.6642e-008
100
root  -15.3733 35.3507 -18.1345 -172.334 4.2285 -179.009
RightUpLeg  -15.2979 -11.2847 -4.98633
RightLeg  27.411 8.9435 3.90362
RightFoot  10.9339 -0.139425 1.93837
RightToes  -46.2676 -0.270386 -0.347721
Spine  -3.17341 0.955332 -0.310228
Spine1  -6.4265 2.24865 -0.186931
HEad  -54.2559 -1.2678 8.50286
LeftShoulder1  -1.94126e-019 -3.10601e-018 -2.51263e-017
LeftArm  -111.599 -43.1971 38.618
LeftForeArm  16.042 -51.5075 -12.8325
LeftHand  -0.110702 4.48207 12.4984
RightShoulder  -4.96962e-017 0 -2.36833e-017
RightArm  -119.257 39.1847 -49.4666
RightForeArm  32.2377 27.6683 4.13202
RightHand  -0.0233931 -5.34718 -10.0977
LeftUpLeg  -11.64 -5.23705 9.5183
LeftLeg  31.8795 8.51794 4.53566
LeftFoot  17.6031 -0.474498 3.22536
LeftToes  -59.6007 1.70063e-006 7.6642e-008
101
root  -15.4108 33.6345 -18.1166 -172.957 4.66406 -178.338
RightUpLeg  -17.3249 -11.6717 -4.4599
RightLeg  34.7703 7.51059 4.49206
RightFoot  -3.10213 -0.0239687 -0.386536
RightToes  -38.1218 -0.203656 -0.304268
Spine  -3.24108 0.666171 -0.0941727
Spine1  -6.53333 1.53703 0.467161
HEad  -54.6421 -1.38938 7.24258
LeftShoulder1  -1.94126e-019 -3.10601e-018 -2.51263e-017
LeftArm  -102.966 -39.1079 32.6307
LeftForeArm  26.4771 -66.0954 -23.3317
LeftHand  -0.216672 3.38365 11.9872
RightShoulder  -4.96962e-017 0 -2.36833e-017
RightArm  -106.178 36.7184 -41.0072
RightForeArm  39.158 47.4237 9.16231
RightHand  0.0935312 -6.28612 -14.4477
LeftUpLeg  -10.7061 -4.42767 9.93347
LeftLeg  35.5127 9.89188 6.08165
LeftFoot  -0.0530613 2.63792e-005 0.217705
LeftToes  -48.3758 1.70063e-006 7.6642e-008
102
root  -15.4458 32.5369 -18.0054 -174.272 5.57059 -178.574
RightUpLeg  -19.4439 -10.5773 -4.40603
RightLeg  41.4559 4.42721 3.3969
RightFoot  -10.8559 -0.135763 -0.917539
RightToes  -31.5916 -0.155033 -0.262874
Spine  -3.15252 0.640047 -0.0309142
Spine1  -6.38554 1.51772 0.627771
HEad  -55.9218 -1.15071 5.95526
LeftShoulder1  -1.94126e-019 -3.10601e-018 -2.51263e-017
LeftArm  -93.1583 -34.0012 26.6572
LeftForeArm  62.7761 -77.9645 -52.5376
LeftHand  -0.713519 0.61421 17.3504
RightShoulder  -4.96962e-017 0 -2.36833e-017
RightArm  -95.7216 33.0615 -31.6961
RightForeArm  59.6209 70.5066 24.6231
RightHand  -0.0557519 -5.12143 -19.6245
LeftUpLeg  -10.4912 -2.09629 9.68023
LeftLeg  39.2074 9.48185 6.7018
LeftFoot  -8.97475 -0.138737 -1.60612
LeftToes  -40.3326 1.70063e-006 7.6642e-008
103
root  -15.4581 32.3373 -17.9374 -173.222 6.49023 -179.159
RightUpLeg  -22.1624 -7.68297 -4.73685
RightLeg  44.0097 2.82349 2.36212
RightFoot  -11.364 -0.109252 -0.576014
RightToes  -32.7733 -0.163477 -0.270772
Spine  -3.6017 0.501577 -0.278458
Spine1  -7.25073 1.20413 0.171157
HEad  -59.005 -0.63902 4.83583
LeftShoulder1  -1.94126e-019 -3.10601e-018 -2.51263e-017
LeftArm  -88.0573 -29.2505 23.6125
LeftForeArm  129.859 -79.8568 -113.483
LeftHand  -1.30041 -0.283215 26.4188
RightShoulder  -4.96962e-017 0 -2.36833e-017
RightArm  -91.6081 30.0182 -25.81
RightForeArm  117.112 81.3475 86.8003
RightHand  0.154801 -5.9626 -30.6682
LeftUpLeg  -11.4778 0.632449 9.25653
LeftLeg  39.2411 8.80102 6.23567
LeftFoot  -10.3657 -0.172128 -1.73595
LeftToes  -39.4363 1.70063e-006 7.6642e-008
